<?xml version="1.0" standalone="no"?>
<!DOCTYPE svg PUBLIC "-//W3C//DTD SVG 20010904//EN"
 "http://www.w3.org/TR/2001/REC-SVG-20010904/DTD/svg10.dtd">
<svg version="1.0" xmlns="http://www.w3.org/2000/svg"
 width="412.000000pt" height="350.000000pt" viewBox="0 0 412.000000 350.000000"
 preserveAspectRatio="xMidYMid meet">

<g transform="translate(0.000000,350.000000) scale(0.100000,-0.100000)"
fill="#000000" stroke="none">
<path d="M0 1750 l0 -1750 2060 0 2060 0 0 1750 0 1750 -2060 0 -2060 0 0
-1750z m2200 1404 c479 -74 908 -438 1068 -909 55 -162 67 -241 67 -445 0
-207 -12 -285 -70 -454 -35 -101 -41 -113 -50 -104 -3 3 6 36 20 74 99 262
115 566 44 833 -99 373 -352 682 -707 864 -218 112 -489 163 -727 137 -295
-31 -516 -122 -745 -307 -143 -116 -258 -260 -343 -434 -72 -145 -102 -238
-128 -391 -38 -218 -13 -485 63 -680 16 -44 28 -82 25 -85 -15 -14 -68 135
-98 278 -31 148 -31 390 0 538 72 339 254 627 524 830 307 229 662 315 1057
255z m-22 -59 c425 -69 796 -350 977 -739 122 -262 156 -587 90 -855 -23 -95
-69 -227 -84 -243 -4 -4 -332 21 -399 32 -2 0 10 24 26 52 105 188 142 434 97
648 -87 419 -439 724 -861 747 -226 12 -415 -42 -609 -175 -148 -102 -288
-293 -346 -475 -33 -103 -42 -183 -36 -326 5 -158 33 -267 97 -390 22 -41 38
-77 36 -79 -2 -2 -73 -10 -158 -17 -84 -8 -172 -17 -195 -19 l-42 -5 -30 79
c-70 181 -103 425 -82 603 28 229 87 393 207 577 208 317 511 518 879 584 107
19 318 20 433 1z m14 -434 c245 -64 454 -234 568 -461 133 -264 128 -563 -13
-825 -40 -74 -45 -80 -75 -80 -18 0 -33 4 -33 8 -1 5 17 41 39 80 84 146 118
293 109 462 -19 349 -249 642 -587 747 -65 20 -95 23 -235 23 -181 0 -226 -10
-357 -75 -176 -87 -296 -207 -378 -374 -62 -126 -83 -218 -83 -366 1 -177 44
-325 132 -454 33 -48 33 -51 -15 -55 -31 -2 -33 0 -87 111 -81 163 -92 212
-91 398 0 180 11 234 79 377 126 267 366 450 662 503 79 15 278 4 365 -19z
m-27 -161 c68 -21 209 -89 202 -97 -2 -2 -21 4 -42 13 -50 21 -174 44 -236 44
-117 0 -272 -50 -375 -121 -268 -184 -356 -551 -204 -849 26 -51 109 -160 121
-160 5 0 9 -4 9 -9 0 -4 -46 -11 -102 -14 l-103 -6 -43 47 c-50 54 -113 179
-138 272 -25 92 -24 274 1 360 27 94 50 145 100 219 119 180 275 280 505 325
58 11 236 -3 305 -24z m80 -131 c178 -46 309 -147 389 -299 46 -86 66 -170 66
-270 0 -146 -52 -282 -151 -393 -80 -90 -99 -98 -221 -95 l-103 3 35 19 c105
57 200 163 245 273 51 127 43 308 -19 431 -112 222 -396 344 -617 267 -23 -8
-46 -15 -52 -15 -27 0 38 32 119 60 73 24 106 30 179 30 50 0 108 -5 130 -11z
m-80 -289 c22 -11 49 -34 60 -52 27 -46 26 -123 -3 -172 -21 -35 -21 -38 -5
-43 28 -8 65 -61 75 -108 18 -86 -22 -162 -102 -190 -63 -22 -342 -22 -361 1
-15 19 -25 132 -13 144 5 5 28 12 52 16 l42 7 0 -49 0 -49 117 5 c65 3 125 9
135 14 26 12 42 62 32 98 -13 45 -46 64 -162 98 -188 54 -284 62 -306 27 -9
-15 -7 -22 13 -38 28 -23 57 -24 160 -3 74 15 83 15 131 -1 29 -9 48 -21 43
-25 -17 -17 -170 -61 -229 -67 -85 -8 -127 2 -169 41 -30 28 -35 40 -35 77 0
25 7 55 16 68 21 29 72 51 119 51 l35 0 0 63 c0 104 4 107 172 107 121 0 148
-3 183 -20z m325 -800 c80 -5 186 -12 235 -15 256 -17 859 -86 873 -100 14
-13 -16 -12 -183 11 -482 65 -929 94 -1451 94 -534 0 -924 -25 -1442 -93 -95
-13 -175 -20 -178 -16 -12 20 595 88 1016 113 261 16 930 19 1130 6z m-506
-56 c13 -5 16 -22 16 -77 l0 -70 -25 23 c-20 19 -25 33 -25 70 0 57 5 65 34
54z m284 -91 c-3 -49 -7 -125 -7 -169 -1 -84 -13 -111 -40 -94 -12 7 -13 37
-7 166 7 157 13 184 45 184 14 0 15 -10 9 -87z m86 71 c20 -19 21 -64 2 -64
-18 0 -32 19 -38 53 -6 31 11 36 36 11z m80 10 c18 -7 21 -97 9 -263 -6 -86
-7 -92 -27 -89 -21 3 -21 7 -17 173 2 94 5 173 8 178 5 9 7 9 27 1z m-1155
-183 c6 -90 8 -167 5 -172 -3 -5 -14 -9 -24 -9 -20 0 -21 9 -36 242 -5 86 -4
97 13 106 10 6 21 8 25 4 3 -4 11 -81 17 -171z m531 154 c11 -13 6 -35 -8 -35
-18 1 -32 18 -26 33 8 21 18 21 34 2z m718 -23 c3 -16 -2 -22 -17 -22 -26 0
-36 17 -20 36 16 19 33 13 37 -14z m-708 -172 c0 -111 -1 -120 -19 -120 -10 0
-22 7 -25 16 -8 21 -8 229 0 237 4 3 15 2 25 -4 17 -9 19 -23 19 -129z m-175
0 c0 -72 -2 -130 -5 -130 -3 0 -14 7 -25 16 -17 13 -20 29 -23 113 -3 81 -1
101 13 114 35 36 40 22 40 -113z m76 120 c15 -9 19 -22 19 -63 0 -52 -12 -77
-36 -77 -8 0 -13 24 -16 75 -3 77 0 82 33 65z m184 -115 c0 -129 -5 -143 -39
-109 -12 12 -16 38 -16 113 0 98 7 121 40 121 13 0 15 -19 15 -125z m177 64
l-4 -61 -24 23 c-28 26 -30 46 -8 77 28 40 39 27 36 -39z m87 47 c16 -20 18
-101 2 -120 -7 -9 -21 -16 -30 -16 -14 0 -16 11 -13 75 4 76 15 93 41 61z
m-800 -25 c5 -9 12 -56 16 -104 6 -76 5 -90 -10 -107 -34 -37 -40 -24 -42 88
-2 59 -5 117 -8 129 -4 17 -1 20 15 16 12 -3 25 -13 29 -22z m85 7 c3 -13 7
-69 10 -125 l6 -103 -24 0 c-30 0 -36 27 -36 156 0 87 1 94 20 94 12 0 21 -8
24 -22z m94 10 c15 -15 16 -78 1 -78 -18 0 -38 32 -39 63 0 29 17 36 38 15z
m975 -2 c3 -8 3 -64 0 -125 -6 -108 -7 -111 -29 -111 -23 0 -24 3 -24 79 0
119 9 171 30 171 10 0 20 -6 23 -14z m61 -2 c9 -8 16 -28 16 -44 0 -16 5 -32
11 -36 8 -4 8 -9 0 -17 -6 -6 -11 -25 -11 -43 0 -62 -37 -124 -56 -93 -11 18
8 111 27 130 15 15 16 20 4 26 -15 9 -19 29 -17 71 2 26 6 27 26 6z m-584
-137 c0 -86 -1 -88 -22 -85 -22 3 -23 7 -25 118 l-3 115 25 -30 c22 -27 25
-39 25 -118z m710 113 c0 -17 -9 -39 -20 -50 -19 -19 -19 -22 -5 -37 18 -17
18 -124 0 -130 -24 -7 -34 16 -35 87 -1 88 7 130 29 147 25 19 31 16 31 -17z
m-628 -146 c3 -57 -7 -68 -36 -38 -11 11 -16 34 -16 76 l0 61 24 -22 c19 -18
25 -35 28 -77z m-332 15 c0 -28 -17 -56 -40 -69 -17 -9 -18 -7 -13 27 9 61 53
95 53 42z m432 -11 c-2 -18 -9 -39 -14 -45 -16 -20 -38 -15 -38 6 0 36 19 71
38 71 15 0 18 -6 14 -32z m333 -119 c323 -17 997 -87 1014 -105 15 -14 -27
-12 -195 10 -455 61 -878 88 -1369 88 -493 0 -927 -28 -1369 -87 -158 -22
-201 -24 -185 -12 2 2 92 16 199 30 237 33 562 64 765 73 83 4 152 8 154 10
10 9 810 3 986 -7z m0 -40 c104 -6 201 -14 214 -18 23 -7 20 -9 -34 -46 -211
-140 -410 -202 -677 -212 -160 -6 -263 3 -383 34 -124 32 -310 117 -397 181
-46 35 -47 37 -26 44 78 25 965 36 1303 17z m-1361 -57 c209 -155 426 -236
701 -263 312 -30 675 72 918 258 31 25 62 43 67 41 20 -6 -137 -113 -255 -173
-179 -91 -306 -127 -506 -144 -231 -19 -513 31 -704 126 -85 43 -208 120 -250
157 -53 47 -35 46 29 -2z"/>
<path d="M1973 2925 c0 -27 2 -38 4 -22 2 15 2 37 0 50 -2 12 -4 0 -4 -28z"/>
<path d="M1869 2933 c-19 -54 -20 -59 -5 -40 15 19 46 23 46 5 0 -6 3 -9 6 -6
6 6 -23 68 -32 68 -2 0 -9 -12 -15 -27z m26 -3 c3 -5 1 -10 -4 -10 -6 0 -11 5
-11 10 0 6 2 10 4 10 3 0 8 -4 11 -10z"/>
<path d="M2037 2953 c-4 -3 -7 -11 -7 -17 0 -7 3 -7 8 1 4 6 21 13 37 16 l30
4 -31 2 c-17 0 -34 -2 -37 -6z"/>
<path d="M1774 2917 l-20 -38 -24 26 c-27 29 -40 32 -40 9 0 -8 4 -13 9 -10 4
3 16 -3 26 -14 24 -27 42 -25 49 5 8 33 26 32 27 -2 1 -21 3 -23 6 -8 2 12 0
32 -5 45 -9 24 -9 24 -28 -13z"/>
<path d="M2170 2941 c0 -6 3 -10 8 -10 4 1 15 1 25 0 20 -1 23 -28 3 -33 -13
-3 -12 -6 0 -23 11 -13 15 -15 13 -5 -1 8 1 23 6 33 9 21 0 32 -32 42 -14 4
-23 2 -23 -4z"/>
<path d="M2105 2929 c7 -19 -11 -35 -45 -42 -21 -4 -20 -4 7 -6 37 -1 64 32
43 53 -8 8 -10 7 -5 -5z"/>
<path d="M2160 2901 c0 -25 6 -27 13 -6 4 8 2 17 -3 20 -6 4 -10 -3 -10 -14z"/>
<path d="M2276 2875 c-4 -15 -5 -30 -1 -33 3 -3 5 2 5 11 0 11 8 17 23 18 15
0 17 2 7 6 -8 3 -18 10 -21 15 -4 6 -9 -2 -13 -17z"/>
<path d="M1520 2875 c-17 -21 -2 -38 27 -30 15 3 31 0 41 -7 13 -11 14 -11 10
2 -4 10 -17 14 -42 13 -42 -3 -46 17 -5 28 22 6 22 7 3 8 -12 1 -27 -6 -34
-14z"/>
<path d="M1701 2874 c0 -11 3 -14 6 -6 3 7 2 16 -1 19 -3 4 -6 -2 -5 -13z"/>
<path d="M2380 2866 c0 -9 9 -21 20 -28 11 -7 20 -20 21 -28 0 -12 2 -12 6 -1
3 8 -5 22 -18 32 -28 21 -17 39 13 20 17 -10 19 -10 16 1 -7 20 -58 23 -58 4z"/>
<path d="M1431 2793 c0 -37 2 -43 9 -27 10 27 34 36 50 21 10 -9 11 -9 6 0 -4
7 -20 22 -36 33 l-30 21 1 -48z m24 18 c3 -5 1 -12 -5 -16 -5 -3 -10 1 -10 9
0 18 6 21 15 7z"/>
<path d="M2298 2833 c7 -3 16 -2 19 1 4 3 -2 6 -13 5 -11 0 -14 -3 -6 -6z"/>
<path d="M2364 2819 c1 -7 12 -16 25 -20 14 -6 20 -5 16 1 -3 6 -12 10 -20 10
-7 0 -16 5 -18 10 -3 6 -4 5 -3 -1z"/>
<path d="M1545 2810 c-13 -5 -14 -9 -5 -9 8 0 24 4 35 9 13 5 14 9 5 9 -8 0
-24 -4 -35 -9z"/>
<path d="M2540 2787 c0 -8 9 -22 20 -32 11 -10 17 -21 14 -26 -6 -10 -36 0
-46 15 -5 8 -8 7 -8 -1 0 -12 30 -33 48 -33 21 0 20 31 0 50 -25 23 -16 40 12
22 11 -7 20 -8 20 -3 0 10 -24 21 -46 21 -8 0 -14 -6 -14 -13z"/>
<path d="M1335 2730 c9 -16 20 -30 26 -30 5 0 0 14 -13 30 -12 17 -23 30 -25
30 -2 0 3 -13 12 -30z"/>
<path d="M1240 2715 c-10 -12 -8 -20 12 -44 28 -36 30 -37 54 -9 15 18 16 20
2 9 -10 -7 -26 -10 -35 -6 -17 6 -17 7 1 21 11 8 15 14 10 14 -6 0 -15 -5 -21
-11 -8 -8 -13 -8 -18 1 -4 6 1 18 11 25 11 8 14 15 8 15 -6 0 -17 -7 -24 -15z"/>
<path d="M2642 2710 c-18 -11 -32 -22 -32 -25 0 -4 5 -3 10 0 16 10 40 -14 34
-33 -4 -14 -3 -13 6 1 7 10 10 27 7 37 -3 11 0 21 7 23 6 2 9 7 6 10 -3 4 -20
-3 -38 -13z m18 -20 c0 -5 -2 -10 -4 -10 -3 0 -8 5 -11 10 -3 6 -1 10 4 10 6
0 11 -4 11 -10z"/>
<path d="M1183 2653 c23 -6 18 -37 -7 -41 -14 -3 -17 0 -13 12 4 9 2 16 -3 16
-21 0 -17 -19 8 -43 23 -22 28 -24 29 -9 1 9 5 29 9 45 6 24 4 27 -17 26 -18
-1 -20 -2 -6 -6z"/>
<path d="M2701 2624 c-1 -24 33 -59 48 -49 14 8 14 35 1 35 -5 0 -7 -7 -4 -15
4 -8 2 -15 -4 -15 -13 0 -29 20 -35 45 -4 19 -5 19 -6 -1z"/>
<path d="M2776 2627 c3 -10 9 -15 12 -12 3 3 0 11 -7 18 -10 9 -11 8 -5 -6z"/>
<path d="M2806 2551 c-14 -5 -16 -10 -8 -15 7 -4 12 -19 12 -34 1 -27 1 -26
20 8 11 19 19 38 20 43 0 9 -19 8 -44 -2z m34 -5 c0 -3 -4 -8 -10 -11 -5 -3
-10 -1 -10 4 0 6 5 11 10 11 6 0 10 -2 10 -4z"/>
<path d="M1060 2470 c24 -46 29 -50 22 -14 -4 20 0 26 19 32 l24 6 -25 7 c-58
16 -62 13 -40 -31z m20 20 c0 -5 -4 -10 -10 -10 -5 0 -10 5 -10 10 0 6 5 10
10 10 6 0 10 -4 10 -10z"/>
<path d="M2886 2450 c6 -33 4 -39 -8 -35 -9 4 -20 16 -26 28 -6 12 -11 16 -11
10 -1 -19 38 -55 50 -47 7 4 9 21 6 40 -4 25 -2 34 11 37 12 3 10 5 -6 6 -21
1 -22 -2 -16 -39z"/>
<path d="M2916 2457 c3 -10 9 -15 12 -12 3 3 0 11 -7 18 -10 9 -11 8 -5 -6z"/>
<path d="M969 2409 c-10 -19 -8 -25 12 -40 28 -22 48 -21 63 4 15 23 -3 51
-37 55 -18 2 -29 -3 -38 -19z m69 -13 c6 -28 -12 -40 -39 -26 -32 17 -30 15
-23 34 9 23 58 17 62 -8z"/>
<path d="M2963 2318 c-39 -19 -23 -69 22 -67 17 1 16 2 -5 8 -38 11 -37 39 2
56 18 8 26 14 18 14 -8 0 -25 -5 -37 -11z"/>
<path d="M920 2303 c0 -5 12 -21 26 -38 19 -23 24 -25 20 -10 -6 23 2 39 24
48 8 3 -4 6 -27 6 -24 1 -43 -2 -43 -6z m40 -13 c0 -5 -4 -10 -9 -10 -6 0 -13
5 -16 10 -3 6 1 10 9 10 9 0 16 -4 16 -10z"/>
<path d="M3012 2285 c0 -16 2 -22 5 -12 2 9 2 23 0 30 -3 6 -5 -1 -5 -18z"/>
<path d="M880 2220 c0 -6 7 -10 15 -10 8 0 15 2 15 4 0 2 -7 6 -15 10 -8 3
-15 1 -15 -4z"/>
<path d="M3006 2207 c-23 -17 -19 -71 7 -73 12 -1 13 -1 2 3 -20 6 -20 59 0
67 8 3 23 3 33 0 14 -5 15 -4 2 5 -19 14 -23 14 -44 -2z"/>
<path d="M923 2203 c4 -3 -10 -14 -30 -23 l-38 -18 28 -11 c39 -15 59 -13 23
2 l-29 13 43 13 c32 9 40 15 29 22 -16 10 -35 12 -26 2z"/>
<path d="M3061 2168 c0 -14 -7 -29 -13 -31 -10 -4 -10 -6 0 -6 16 -1 25 22 19
46 -3 12 -5 9 -6 -9z"/>
<path d="M834 2076 c-7 -31 -1 -42 30 -48 18 -4 23 -1 19 10 -4 8 4 23 18 34
24 19 24 19 2 13 -14 -4 -23 -2 -23 4 0 6 -4 11 -8 11 -5 0 -6 -14 -4 -31 4
-24 1 -30 -9 -27 -8 3 -13 17 -12 32 2 33 -5 34 -13 2z"/>
<path d="M3045 2009 c-11 -16 -1 -19 13 -3 7 8 8 14 3 14 -5 0 -13 -5 -16 -11z"/>
<path d="M3096 2013 c7 -4 14 -19 17 -33 4 -22 5 -21 4 4 -1 17 -9 31 -17 33
-10 3 -11 2 -4 -4z"/>
<path d="M828 1979 c-25 -14 -24 -65 2 -79 14 -8 26 -8 40 0 27 14 27 65 1 80
-23 12 -22 12 -43 -1z m36 -5 c20 -8 21 -60 1 -68 -37 -14 -62 33 -33 62 14
14 12 14 32 6z"/>
<path d="M3083 1903 c9 -2 25 -2 35 0 9 3 1 5 -18 5 -19 0 -27 -2 -17 -5z"/>
<path d="M832 1843 c30 -3 38 -9 41 -29 4 -21 4 -21 3 3 -1 26 -5 28 -41 29
l-40 1 37 -4z"/>
<path d="M3088 1843 c20 -3 30 -8 26 -15 -4 -7 -2 -8 4 -4 24 14 11 26 -25 24
-38 -1 -38 -1 -5 -5z"/>
<path d="M3069 1800 l-24 -19 40 1 c24 0 31 3 17 5 -19 4 -21 7 -11 19 17 20
5 17 -22 -6z"/>
<path d="M3051 1710 c1 -17 3 -19 6 -7 5 20 29 23 36 5 4 -10 6 -10 6 0 2 21
19 13 24 -10 4 -21 4 -20 6 3 1 24 -3 27 -39 31 -37 3 -40 2 -39 -22z"/>
<path d="M841 1679 c-18 -11 -32 -22 -30 -23 10 -10 79 -23 74 -15 -4 5 -15 9
-26 9 -25 0 -24 8 4 31 29 24 20 24 -22 -2z"/>
<path d="M3048 1633 c6 -2 18 -2 25 0 6 3 1 5 -13 5 -14 0 -19 -2 -12 -5z"/>
<path d="M3062 1608 l-33 -21 22 -23 22 -24 -24 -1 -24 -1 25 -8 c49 -16 54
-10 21 24 l-32 33 40 17 c41 16 53 27 29 25 -7 0 -28 -10 -46 -21z"/>
<path d="M835 1580 c-14 -6 -8 -7 22 -3 39 5 42 4 46 -21 4 -26 4 -26 3 1 -1
22 -6 28 -26 30 -14 1 -34 -2 -45 -7z"/>
<path d="M860 1530 c-23 -7 -23 -8 -3 -9 12 -1 25 4 28 9 3 6 5 10 3 9 -2 -1
-14 -5 -28 -9z"/>
<path d="M890 1455 c0 -38 -16 -48 -23 -15 -4 17 -4 17 -3 -2 0 -13 9 -24 19
-26 14 -3 17 4 17 33 0 44 22 43 31 -1 6 -28 7 -28 8 -3 1 27 -15 49 -36 49
-8 0 -13 -13 -13 -35z"/>
<path d="M3015 1460 c0 -26 4 -30 28 -30 15 0 27 4 27 8 0 7 -45 52 -53 52 -1
0 -2 -13 -2 -30z m45 -16 c0 -2 -7 -4 -15 -4 -8 0 -15 4 -15 10 0 5 7 7 15 4
8 -4 15 -8 15 -10z"/>
<path d="M1912 1964 l3 -46 70 -19 c124 -33 124 -33 145 -14 13 12 20 31 20
56 0 58 -24 69 -143 69 l-98 0 3 -46z"/>
</g>
</svg>
